<svg width="156" height="42" viewBox="0 0 156 42" fill="none" xmlns="http://www.w3.org/2000/svg">
<g clip-path="url(#clip0_26_521)">
<path d="M23.6029 4.05514L20.005 3.09106L16.973 14.4068L14.2356 4.19088L10.6376 5.15495L13.5951 16.1925L6.22856 8.82595L3.59467 11.4598L11.6749 19.5401L1.61227 16.8438L0.648193 20.4417L11.6429 23.3878C11.517 22.8448 11.4504 22.2791 11.4504 21.6979C11.4504 17.5834 14.7858 14.2481 18.9002 14.2481C23.0146 14.2481 26.35 17.5834 26.35 21.6979C26.35 22.2754 26.2842 22.8376 26.1599 23.3773L36.152 26.0547L37.116 22.4568L26.0776 19.499L36.1409 16.8026L35.1768 13.2046L24.1389 16.1622L31.5054 8.7957L28.8715 6.16181L20.9034 14.13L23.6029 4.05514Z" fill="#180030"/>
<path d="M26.1494 23.4192C25.8409 24.7234 25.1896 25.895 24.2961 26.8336L31.5349 34.0726L34.1688 31.4387L26.1494 23.4192Z" fill="#180030"/>
<path d="M24.223 26.9093C23.3186 27.833 22.1757 28.5223 20.8941 28.8775L23.5282 38.708L27.1261 37.7439L24.223 26.9093Z" fill="#180030"/>
<path d="M20.7597 28.9135C20.1651 29.0664 19.5418 29.1476 18.8996 29.1476C18.2114 29.1476 17.5451 29.0543 16.9125 28.8797L14.276 38.7191L17.874 39.6831L20.7597 28.9135Z" fill="#180030"/>
<path d="M16.7853 28.8434C15.5232 28.4705 14.4007 27.7724 13.5148 26.8461L6.25812 34.1028L8.89201 36.7367L16.7853 28.8434Z" fill="#180030"/>
<path d="M13.455 26.7819C12.5843 25.8498 11.95 24.6938 11.6482 23.4098L1.62341 26.0959L2.58748 29.6939L13.455 26.7819Z" fill="#180030"/>
</g>
<path d="M58.7663 11.5458V24.5113L50.4551 11.5458H47.1306V29.4469H50.4551V16.5837L58.7663 29.4469H62.0908V11.5458H58.7663Z" fill="#180030"/>
<path d="M63.5888 14.8959H67.0155V11.5458H63.5888V14.8959ZM63.6399 29.4469V16.6604H66.9644V29.4469H63.6399Z" fill="#180030"/>
<path d="M81.2682 23.0536C81.2682 18.6295 78.1228 16.5326 74.7983 16.507C71.4482 16.4814 68.3539 18.6295 68.3539 23.0536C68.3539 27.4778 71.4482 29.6259 74.7983 29.6003C77.8415 29.5747 79.9385 28.1682 80.9102 25.8411L78.3274 24.767C77.5346 26.3526 76.2815 26.9152 74.7983 26.9407C73.5197 26.9663 72.062 26.3525 71.7551 24.0766H81.1915C81.2427 23.7441 81.2682 23.4117 81.2682 23.0536ZM74.7983 19.141C76.0769 19.1666 77.3812 19.857 77.7903 21.6983H71.8063C72.241 19.8315 73.5452 19.1154 74.7983 19.141Z" fill="#180030"/>
<path d="M88.9513 19.0387V16.507H86.8543V13.0802L83.5299 14.1031V16.507H81.4329V19.0387H83.5299V25.6621C83.5299 28.1682 83.7344 29.4469 87.6215 29.4469H88.5166V26.5316H87.6215C87.0078 26.5316 86.8543 26.4293 86.8543 25.6621V19.0387H88.9513Z" fill="#180030"/>
<path d="M93.8913 26.6594L100.949 19.4479V16.6604H90.3622V19.4479H97.2157L90.1576 26.6594V29.4469H101.026V26.6594H93.8913Z" fill="#180030"/>
<path d="M102.218 25.8411L105.568 25.3296C105.798 26.6083 107.307 27.0942 108.228 27.0942C109.174 27.0942 110.811 26.8896 110.811 25.3552C110.811 22.3632 102.602 26.0968 102.602 20.3685C102.602 16.686 106.872 16.4814 108.228 16.4814C109.506 16.4814 113.214 16.686 113.982 19.6524L110.811 20.3173C110.529 18.962 109.097 18.7063 108.33 18.7063C107.563 18.7063 105.926 18.8853 105.926 20.3685C105.926 23.3349 114.135 19.5502 114.135 25.3552C114.135 29.2679 109.634 29.6003 108.228 29.6003C106.949 29.6003 102.883 29.2679 102.218 25.8411Z" fill="#180030"/>
<path d="M118.454 23.0536C118.454 26.1735 120.116 27.1197 121.855 27.0942C123.415 27.0686 124.489 26.4293 125.128 24.6392L127.865 25.969C126.867 28.5774 124.438 29.5747 121.855 29.6003C118.505 29.6259 115.129 27.4778 115.129 23.0536C115.129 18.6295 118.505 16.4814 121.855 16.507C124.438 16.5326 126.867 17.5299 127.865 20.1383L125.128 21.4681C124.489 19.678 123.415 19.0387 121.855 19.0131C120.116 18.9876 118.454 19.9338 118.454 23.0536Z" fill="#180030"/>
<path d="M136.789 16.4558C135.076 16.4558 133.516 17.3509 132.519 19.2689V11.5458H129.194V29.4469H132.519V24.9205C132.519 19.0643 134.948 18.5784 135.843 18.5784C137.275 18.5784 137.48 20.0616 137.48 22.2353V29.4469H140.804V22.2353C140.804 19.5246 140.37 16.4558 136.789 16.4558Z" fill="#180030"/>
<path d="M154.84 23.0536C154.84 18.6295 151.695 16.5326 148.37 16.507C145.02 16.4814 141.926 18.6295 141.926 23.0536C141.926 27.4778 145.02 29.6259 148.37 29.6003C151.414 29.5747 153.51 28.1682 154.482 25.8411L151.899 24.767C151.107 26.3526 149.854 26.9152 148.37 26.9407C147.092 26.9663 145.634 26.3525 145.327 24.0766H154.764C154.815 23.7441 154.84 23.4117 154.84 23.0536ZM148.37 19.141C149.649 19.1666 150.953 19.857 151.362 21.6983H145.378C145.813 19.8315 147.117 19.1154 148.37 19.141Z" fill="#180030"/>
<defs>
<clipPath id="clip0_26_521">
<rect width="37.5069" height="37.5069" fill="white" transform="translate(0.357666 2.24652)"/>
</clipPath>
</defs>
</svg>
