<svg width="95" height="71" viewBox="0 0 95 71" fill="none" xmlns="http://www.w3.org/2000/svg">
<path fill-rule="evenodd" clip-rule="evenodd" d="M87.5165 0H37.507C35.3992 0 33.3717 0.780048 31.8422 2.17944L2.3909 29.1251C-2.60358 33.6946 0.748092 41.8056 7.63084 41.8056H42.0292C43.8894 41.8056 44.7953 39.6134 43.4454 38.3784L35.5823 31.1843C31.5327 27.4793 34.2503 20.9028 39.8309 20.9028H66.5493C68.6571 20.9028 70.6846 20.1227 72.2141 18.7234L88.9327 3.42717C90.2825 2.19215 89.3767 0 87.5165 0ZM7.48352 71H57.493C59.6008 71 61.6283 70.2199 63.1578 68.8206L92.6091 41.8749C97.6036 37.3054 94.2519 29.1944 87.3692 29.1944H52.9708C51.1106 29.1944 50.2047 31.3866 51.5546 32.6216L59.4177 39.8157C63.4673 43.5207 60.7497 50.0972 55.1691 50.0972H28.4507C26.3429 50.0972 24.3154 50.8773 22.7859 52.2766L6.06732 67.5728C4.71746 68.8078 5.62332 71 7.48352 71Z" fill="#8000FF"/>
</svg>
