<?xml version="1.0" encoding="UTF-8"?>
<!DOCTYPE svg PUBLIC "-//W3C//DTD SVG 1.1//EN" "http://www.w3.org/Graphics/SVG/1.1/DTD/svg11.dtd">
<svg xmlns="http://www.w3.org/2000/svg" version="1.1" width="46px" height="34px" style="shape-rendering:geometricPrecision; text-rendering:geometricPrecision; image-rendering:optimizeQuality; fill-rule:evenodd; clip-rule:evenodd" xmlns:xlink="http://www.w3.org/1999/xlink">
<g><path style="opacity:0.929" fill="#8000ff" d="M 14.5,-0.5 C 23.8333,-0.5 33.1667,-0.5 42.5,-0.5C 40.4022,3.43361 37.4022,6.60028 33.5,9C 28.1667,9.33333 22.8333,9.66667 17.5,10C 16.8333,10.6667 16.1667,11.3333 15.5,12C 17.4673,14.4359 19.134,16.9359 20.5,19.5C 13.4122,19.7955 6.41215,19.4621 -0.5,18.5C -0.5,16.8333 -0.5,15.1667 -0.5,13.5C 4.52615,8.80532 9.52615,4.13866 14.5,-0.5 Z"/></g>
<g><path style="opacity:0.883" fill="#8000ff" d="M 28.5,33.5 C 19.5,33.5 10.5,33.5 1.5,33.5C 7.03648,23.051 15.7032,19.3843 27.5,22.5C 27.539,19.1903 26.2057,16.5237 23.5,14.5C 23.7093,13.914 24.0426,13.414 24.5,13C 30.1667,12.3333 35.8333,12.3333 41.5,13C 44.3064,14.3051 45.1397,16.4718 44,19.5C 38.6382,24.0324 33.4716,28.699 28.5,33.5 Z"/></g>
</svg>
