<svg width="153" height="41" viewBox="0 0 153 41" fill="none" xmlns="http://www.w3.org/2000/svg">
<path d="M13.2755 30.5618L13.2755 30.5618L13.2817 30.5601C15.9669 29.8278 18.9101 29.9864 21.7884 31.0554C25.6439 32.49 29.488 32.0226 33.6138 29.7403L33.6138 29.7403L33.6174 29.7383L34.2823 29.3643L33.8606 30.0179L33.852 30.0312L33.8442 30.0449C33.5427 30.5725 33.1652 31.0328 32.7502 31.5311C32.742 31.5365 32.7313 31.5436 32.7173 31.5529C32.6841 31.575 32.5969 31.6345 32.5237 31.7391C32.5095 31.7593 32.4968 31.7799 32.4853 31.8008L32.3863 31.8998L32.3174 31.9342C27.4739 33.9806 23.4666 33.0752 21.5177 32.3446C18.9331 31.3645 16.3394 31.2729 13.9238 31.898C12.0619 32.3422 10.2935 33.2242 8.7056 34.5365C8.48344 34.6643 8.29315 34.8523 8.21364 34.9321L8.05916 35.0609L7.91181 34.9626L7.91181 34.9626C7.80445 34.891 7.72506 34.8408 7.66258 34.8013C7.54843 34.729 7.49074 34.6925 7.42213 34.627C7.41685 34.6186 7.40751 34.6044 7.39238 34.5817C7.37024 34.5485 7.31074 34.4612 7.20622 34.3881C7.17851 34.3687 7.15002 34.3518 7.121 34.3374L6.91559 34.1548L7.95353 33.2652C9.61243 32.0233 11.4142 31.0473 13.2755 30.5618Z" fill="white" fill-opacity="0.2" stroke="white" stroke-width="1.17209"/>
<path d="M10.1673 20.7329L10.1673 20.7328L10.1625 20.7341C6.62392 21.6835 4.10065 23.9698 2.33083 25.5734C2.2745 25.6245 2.21892 25.6748 2.1641 25.7244L2.08239 25.7984L2.0359 25.8913C2.03249 25.8952 2.01745 25.9127 1.9724 25.9577C1.96923 25.9609 1.9658 25.9643 1.96212 25.968C1.90955 26.0202 1.80723 26.1219 1.72457 26.2633L1.54234 26.5002L1.41713 26.1663C1.3696 25.9428 1.30425 25.725 1.24671 25.5332L1.24327 25.5218C1.17787 25.3038 1.1224 25.1173 1.08612 24.9359L1.08339 24.9222L1.08 24.9087L1.07524 24.8896L1.07797 24.8869C1.08612 24.8818 1.10059 24.8723 1.12429 24.8565C1.15751 24.8343 1.24476 24.7748 1.31792 24.6703C1.33493 24.646 1.34997 24.6211 1.36314 24.5957L1.95045 23.9693L2.52857 23.4356C4.68961 21.4408 6.9965 20.0455 9.6184 19.3076C12.303 18.576 15.2456 18.7349 18.1232 19.8037L18.1232 19.8037L18.1292 19.8059C25.1229 22.3164 31.1562 18.1651 34.9398 14.2964C34.9792 14.2571 35.0083 14.2333 35.0508 14.1985C35.0769 14.1772 35.1081 14.1516 35.1499 14.1158C35.2244 14.052 35.3294 13.9563 35.4177 13.8185L35.5616 13.6746L35.6764 13.9959L35.6801 14.0062L35.6841 14.0164C35.86 14.456 36.0125 14.8405 36.0859 15.1343L36.0956 15.1729L36.1104 15.2098L36.1373 15.2772L36.0696 15.345L35.9844 15.4302L34.7165 16.6981C27.0808 23.5795 20.3427 22.1437 17.7668 21.178C15.1802 20.1971 12.5845 20.1062 10.1673 20.7329ZM1.09633 24.8686C1.09632 24.8686 1.0963 24.8686 1.09629 24.8686L1.09633 24.8686Z" fill="white" fill-opacity="0.2" stroke="white" stroke-width="1.17209"/>
<path d="M8.46247 15.1919L8.45549 15.1937L8.44855 15.1957C5.97893 15.9013 3.68617 17.2213 1.66328 19.318C1.50291 19.434 1.37664 19.5644 1.27994 19.6719C1.22273 19.7354 1.18288 19.782 1.15 19.8203C1.10741 19.8701 1.07652 19.9061 1.03474 19.9479L1.02883 19.9538L1.02308 19.9599L0.648108 20.3569L0.669406 19.8245C0.713053 19.5491 0.734866 19.2594 0.754941 18.9884L0.756681 18.9649C0.777683 18.6812 0.797677 18.4112 0.8359 18.1436L0.84179 18.1024V18.0607V18.0477L0.871621 18.0179C0.872548 18.017 0.873303 18.0162 0.873908 18.0156L0.874434 18.0151L0.875369 18.0142L0.87909 18.0104L0.886454 18.0031L0.900881 17.9887L0.907953 17.9816L0.914934 17.9746L0.928644 17.9609L0.932021 17.9575C0.936502 17.953 0.929223 17.9603 0.933703 17.9558L0.934542 17.955L0.935379 17.9542L0.936216 17.9533L0.937052 17.9525L0.937886 17.9516L0.938719 17.9508L0.940382 17.9492C0.94181 17.9477 0.942937 17.9466 0.943809 17.9457L0.945345 17.9442L0.948632 17.9409L0.955157 17.9344L1.05372 17.8358L1.05971 17.8298L1.06571 17.8238L1.07774 17.8118L1.08377 17.8058L1.08679 17.8027L1.08755 17.802L1.08831 17.8012L1.08982 17.7997L1.102 17.7875L1.12677 17.7628L1.13307 17.7565L1.13942 17.7501L1.14261 17.7469L1.14582 17.7437L1.14904 17.7405L1.15228 17.7373L1.15881 17.7307L1.1654 17.7241L1.16872 17.7208L1.17206 17.7175L1.1788 17.7107L1.20656 17.683L1.24508 17.6445L2.98742 16.234C4.64875 15.1567 6.29101 14.3403 7.99997 13.8516C10.6838 13.1205 13.6253 13.2792 16.502 14.3474C23.1433 16.8593 28.9223 13.1513 32.5408 9.70507L32.546 9.70015L32.551 9.69509L32.5867 9.65946L32.6283 9.61784L32.7215 9.52461L32.892 9.35413L33.0109 9.23522L33.1169 9.3766C33.2012 9.48898 33.2714 9.59603 33.3497 9.71535C33.3781 9.75862 33.4076 9.80351 33.4391 9.85085C33.5399 10.002 33.6595 10.1734 33.8098 10.3323L33.823 10.3521L33.8163 10.3575L33.791 10.3777L33.7681 10.4007L32.6764 11.4923C29.7903 13.9497 23.3894 18.3219 16.0599 15.6363C13.474 14.6561 10.879 14.5654 8.46247 15.1919Z" fill="white" fill-opacity="0.2" stroke="white" stroke-width="1.17209"/>
<path d="M24.4648 36.3028L24.2943 36.8142L24.4648 36.3028C24.209 36.2175 24.0386 36.1323 23.7828 36.047C20.7993 34.9389 17.7306 34.7684 14.9175 35.5356C14.3208 35.7061 13.7242 35.8766 13.1275 36.1323L11.0816 37.07L10.5702 37.3257L12.275 37.9224C12.7865 38.0929 13.2979 38.2634 13.8094 38.4339L14.0651 38.5191L14.3208 38.4339C14.5766 38.3486 14.8323 38.1781 15.088 38.1781C15.2585 38.1781 15.429 38.0929 15.5995 38.0076C17.6453 37.4962 19.8616 37.4962 22.2484 38.2634C22.5042 38.3486 22.6747 38.4339 22.9304 38.5191L23.3566 38.6896L23.6123 38.6043C24.209 38.4338 24.891 38.2634 25.4024 38.0076L27.7892 37.1552L25.3172 36.5585C25.0615 36.4733 24.7205 36.388 24.4648 36.3028Z" fill="white" fill-opacity="0.2"/>
<path d="M37.5069 18.6575L36.2283 19.9361C36.0578 20.1066 35.8873 20.2771 35.7169 20.4476C32.2219 23.7721 26.5958 27.3523 20.2879 24.9654C17.3044 23.8573 14.2356 23.6868 11.4226 24.454C8.78006 25.2212 6.39324 26.5851 4.26216 28.6309L3.15402 29.8243L2.81305 30.2505L3.15402 30.762C3.40975 31.103 3.58024 31.3587 3.75073 31.6997L4.26216 32.4668L4.85888 31.6997C4.94412 31.6144 5.1146 31.4439 5.19984 31.3587C7.24567 29.1424 9.46199 27.7785 12.0193 27.0965C14.3208 26.4998 16.7929 26.5851 19.2649 27.5227C21.396 28.2899 23.6123 28.5457 25.8287 28.2899C29.7498 27.8637 33.671 25.6474 36.5693 23.1754C36.7398 23.0049 36.9102 22.9196 37.0807 22.7492L37.3365 22.4934V22.2377C37.3365 21.7262 37.4217 21.1295 37.4217 20.6181L37.5069 18.6575Z" fill="white" fill-opacity="0.2"/>
<path d="M5.11475 10.8153L4.85903 10.3039L5.11475 10.8153C5.62621 10.5596 6.22293 10.3891 6.73439 10.2186C9.03595 9.62191 11.508 9.70715 13.98 10.6448C15.5997 11.2415 17.2193 11.4973 19.0094 11.4973C22.5896 11.4973 26.1698 10.2186 29.4943 7.74657L30.7729 6.72364L31.1991 6.38267L30.4319 5.78596C30.1762 5.53023 29.8352 5.27451 29.4943 5.10403L28.9828 4.76306L28.5566 5.10403C28.3861 5.18927 28.3008 5.35975 28.1304 5.445C23.6125 8.85472 19.0946 9.7924 14.8325 8.17278C11.7637 7.06462 8.69496 6.80889 5.62621 7.74657C5.37048 7.83181 5.11475 7.91704 4.77378 8.00229L4.60331 8.08753L4.34757 8.34325C4.34757 8.4285 4.26234 8.42851 4.1771 8.51375C3.83612 9.02521 3.40989 9.45143 3.06892 9.96289L1.44931 12.4349L4.09185 11.071C4.51806 11.071 4.85902 10.9006 5.11475 10.8153Z" fill="white" fill-opacity="0.2"/>
<path d="M12.1045 5.01865L12.3602 5.1039C13.4684 5.53012 15.1733 5.95633 17.3044 5.95633C19.5207 5.95633 21.6518 5.44487 23.7828 4.59244L26.4253 3.31379L24.6353 2.71711C24.1238 2.54662 23.6123 2.37614 23.0156 2.29089H22.7599L22.5042 2.37612C22.2485 2.46136 21.9927 2.63187 21.737 2.71711C19.1797 3.65478 16.6224 3.82527 14.1504 3.14332C13.8946 3.05808 13.6389 2.97282 13.3832 2.88758L13.1275 2.80233L12.8717 2.88758C12.3603 3.05807 11.8488 3.22856 11.3373 3.48429L9.37674 4.33672L11.4226 4.93341C11.5931 4.84816 11.8488 4.93341 12.1045 5.01865Z" fill="white" fill-opacity="0.2"/>
<path d="M52.2368 28.9052H48.304L54.2964 11.5466H59.026L65.0099 28.9052H61.0771L56.729 15.5133H56.5934L52.2368 28.9052ZM51.991 22.0821H61.2805V24.947H51.991V22.0821Z" fill="white"/>
<path d="M70.6421 11.5466V28.9052H67.0314V11.5466H70.6421Z" fill="white"/>
<path d="M80.4593 15.8863V18.5985H72.6191V15.8863H80.4593ZM74.3991 12.7671H78.0098V24.9046C78.0098 25.238 78.0606 25.4979 78.1623 25.6844C78.2641 25.8652 78.4053 25.9923 78.5861 26.0658C78.7726 26.1392 78.9873 26.176 79.2303 26.176C79.3998 26.176 79.5693 26.1618 79.7389 26.1336C79.9084 26.0997 80.0383 26.0742 80.1287 26.0573L80.6966 28.7441C80.5158 28.8007 80.2615 28.8656 79.9338 28.9391C79.6061 29.0182 79.2077 29.0662 78.7387 29.0832C77.8685 29.1171 77.1057 29.0012 76.4502 28.7357C75.8004 28.4701 75.2947 28.0576 74.933 27.4982C74.5714 26.9388 74.3934 26.2325 74.3991 25.3792V12.7671Z" fill="white"/>
<path d="M87.5684 27.9644V15.9625H90.6028V27.9644H87.5684ZM83.0847 23.4806V20.4463H95.0865V23.4806H83.0847Z" fill="white"/>
<path d="M108.122 16.5389C108.055 15.8552 107.764 15.324 107.249 14.9454C106.735 14.5668 106.037 14.3775 105.156 14.3775C104.557 14.3775 104.051 14.4623 103.639 14.6318C103.226 14.7957 102.91 15.0245 102.689 15.3184C102.475 15.6122 102.367 15.9456 102.367 16.3185C102.356 16.6293 102.421 16.9005 102.562 17.1322C102.709 17.3639 102.91 17.5645 103.164 17.734C103.418 17.8979 103.712 18.0419 104.046 18.1663C104.379 18.2849 104.735 18.3866 105.113 18.4714L106.673 18.8443C107.43 19.0138 108.125 19.2399 108.758 19.5224C109.391 19.8049 109.939 20.1524 110.402 20.5649C110.866 20.9774 111.225 21.4634 111.479 22.0228C111.739 22.5822 111.872 23.2235 111.877 23.9468C111.872 25.0091 111.6 25.9302 111.064 26.7099C110.532 27.4841 109.764 28.0859 108.758 28.5153C107.758 28.9391 106.552 29.151 105.139 29.151C103.738 29.151 102.517 28.9363 101.477 28.5068C100.443 28.0774 99.6352 27.4417 99.0532 26.5998C98.4769 25.7522 98.1746 24.704 98.1463 23.4552H101.698C101.737 24.0372 101.904 24.5232 102.198 24.9131C102.497 25.2973 102.896 25.5883 103.393 25.7861C103.896 25.9782 104.464 26.0742 105.097 26.0742C105.718 26.0742 106.258 25.9838 106.715 25.803C107.179 25.6222 107.538 25.3707 107.792 25.0487C108.046 24.7266 108.173 24.3565 108.173 23.9383C108.173 23.5484 108.057 23.2207 107.826 22.9551C107.6 22.6895 107.266 22.4635 106.826 22.2771C106.391 22.0906 105.857 21.9211 105.224 21.7685L103.334 21.2939C101.87 20.9379 100.715 20.3813 99.8669 19.6241C99.0193 18.8669 98.5984 17.847 98.604 16.5643C98.5984 15.5133 98.8781 14.5951 99.4431 13.8097C100.014 13.0242 100.796 12.4111 101.791 11.9704C102.785 11.5297 103.916 11.3093 105.181 11.3093C106.47 11.3093 107.594 11.5297 108.555 11.9704C109.521 12.4111 110.272 13.0242 110.809 13.8097C111.346 14.5951 111.623 15.5048 111.64 16.5389H108.122Z" fill="white"/>
<path d="M117.889 21.3786V28.9052H114.278V11.5466H117.787V18.1832H117.94C118.233 17.4147 118.708 16.8129 119.364 16.3779C120.019 15.9371 120.841 15.7167 121.83 15.7167C122.734 15.7167 123.522 15.9145 124.195 16.31C124.873 16.6999 125.398 17.2622 125.771 17.9967C126.15 18.7257 126.336 19.5987 126.331 20.6158V28.9052H122.72V21.26C122.726 20.4576 122.522 19.8332 122.11 19.3868C121.703 18.9404 121.132 18.7172 120.398 18.7172C119.906 18.7172 119.471 18.8217 119.092 19.0308C118.719 19.2399 118.426 19.545 118.211 19.9462C118.002 20.3417 117.894 20.8192 117.889 21.3786Z" fill="white"/>
<path d="M129.172 28.9052V15.8863H132.783V28.9052H129.172ZM130.986 14.208C130.449 14.208 129.989 14.03 129.605 13.6741C129.226 13.3124 129.037 12.8801 129.037 12.3772C129.037 11.88 129.226 11.4534 129.605 11.0974C129.989 10.7358 130.449 10.5549 130.986 10.5549C131.523 10.5549 131.981 10.7358 132.359 11.0974C132.743 11.4534 132.936 11.88 132.936 12.3772C132.936 12.8801 132.743 13.3124 132.359 13.6741C131.981 14.03 131.523 14.208 130.986 14.208Z" fill="white"/>
<path d="M143.967 15.8863V18.5985H134.641V15.8863H143.967ZM136.481 28.9052V14.9454C136.481 14.0018 136.664 13.2192 137.031 12.5976C137.404 11.9761 137.913 11.5099 138.557 11.1991C139.201 10.8883 139.933 10.7329 140.752 10.7329C141.306 10.7329 141.812 10.7753 142.27 10.8601C142.733 10.9448 143.078 11.0211 143.304 11.0889L142.659 13.8012C142.518 13.756 142.343 13.7136 142.134 13.6741C141.931 13.6345 141.721 13.6147 141.507 13.6147C140.976 13.6147 140.605 13.739 140.396 13.9877C140.187 14.2306 140.083 14.5725 140.083 15.0132V28.9052H136.481Z" fill="white"/>
<path d="M151.807 15.8863V18.5985H143.967V15.8863H151.807ZM145.747 12.7671H149.358V24.9046C149.358 25.238 149.408 25.4979 149.51 25.6844C149.612 25.8652 149.753 25.9923 149.934 26.0658C150.12 26.1392 150.335 26.176 150.578 26.176C150.748 26.176 150.917 26.1618 151.087 26.1336C151.256 26.0997 151.386 26.0742 151.476 26.0573L152.044 28.7441C151.864 28.8007 151.609 28.8656 151.282 28.9391C150.954 29.0182 150.555 29.0662 150.086 29.0832C149.216 29.1171 148.453 29.0012 147.798 28.7357C147.148 28.4701 146.642 28.0576 146.281 27.4982C145.919 26.9388 145.741 26.2325 145.747 25.3792V12.7671Z" fill="white"/>
</svg>
