<svg width="186" height="41" viewBox="0 0 186 41" fill="none" xmlns="http://www.w3.org/2000/svg">
<path fill-rule="evenodd" clip-rule="evenodd" d="M4.02318 24.7741C4.87378 25.6198 4.87376 26.9909 4.02315 27.8366L3.97959 27.8799C3.12898 28.7256 1.74988 28.7255 0.899289 27.8799C0.0486955 27.0342 0.0487086 25.663 0.899319 24.8173L0.942881 24.774C1.79349 23.9283 3.17259 23.9284 4.02318 24.7741Z" fill="#180030"/>
<path fill-rule="evenodd" clip-rule="evenodd" d="M14.2631 25.4263C15.1121 26.2736 15.1096 27.6447 14.2575 28.4889L8.22416 34.4657C7.37202 35.3099 5.99293 35.3074 5.14387 34.4602C4.2948 33.613 4.2973 32.2418 5.14944 31.3977L11.1828 25.4208C12.0349 24.5766 13.414 24.5791 14.2631 25.4263Z" fill="white"/>
<path fill-rule="evenodd" clip-rule="evenodd" d="M22.4518 35.7151C23.119 34.72 24.4714 34.4511 25.4723 35.1145L25.6029 35.2012C26.6038 35.8646 26.8743 37.2091 26.207 38.2042C25.5398 39.1993 24.1874 39.4682 23.1865 38.8048L23.0559 38.7182C22.055 38.0548 21.7845 36.7103 22.4518 35.7151Z" fill="#8000FF" fill-opacity="0.2"/>
<path fill-rule="evenodd" clip-rule="evenodd" d="M36.8254 24.644C37.676 25.4897 37.676 26.8609 36.8254 27.7066L33.8632 30.6517C33.0126 31.4974 31.6335 31.4974 30.7829 30.6517C29.9323 29.806 29.9323 28.4348 30.7829 27.5892L33.7451 24.644C34.5957 23.7983 35.9748 23.7983 36.8254 24.644Z" fill="white"/>
<path fill-rule="evenodd" clip-rule="evenodd" d="M36.869 13.7515C37.7196 14.5971 37.7196 15.9683 36.869 16.814L14.979 38.5775C14.1284 39.4232 12.7493 39.4232 11.8987 38.5775C11.0481 37.7318 11.0481 36.3607 11.8987 35.515L33.7887 13.7515C34.6393 12.9058 36.0184 12.9058 36.869 13.7515Z" fill="white"/>
<path fill-rule="evenodd" clip-rule="evenodd" d="M32.7306 7.05993C33.5812 7.90562 33.5812 9.27675 32.7306 10.1224L20.1411 22.6392C19.2905 23.4849 17.9114 23.4849 17.0608 22.6392C16.2102 21.7935 16.2102 20.4224 17.0608 19.5767L29.6503 7.05993C30.5009 6.21424 31.88 6.21424 32.7306 7.05993Z" fill="white"/>
<path fill-rule="evenodd" clip-rule="evenodd" d="M26.0863 2.81451C26.9375 3.65964 26.9384 5.03077 26.0884 5.87703L9.90511 21.9885C9.05508 22.8348 7.67598 22.8357 6.82481 21.9906C5.97364 21.1455 5.97271 19.7744 6.82274 18.9281L23.006 2.81657C23.8561 1.97031 25.2352 1.96939 26.0863 2.81451Z" fill="white"/>
<path fill-rule="evenodd" clip-rule="evenodd" d="M10.0592 7.97211C10.9083 8.81926 10.9059 10.1904 10.0539 11.0346L3.7156 17.3147C2.86354 18.1589 1.48444 18.1565 0.635303 17.3094C-0.213834 16.4622 -0.21146 15.0911 0.640605 14.2469L6.97888 7.96684C7.83095 7.12261 9.21004 7.12497 10.0592 7.97211Z" fill="white"/>
<path fill-rule="evenodd" clip-rule="evenodd" d="M13.9399 1.70483C15.1428 1.70483 16.118 2.67437 16.118 3.87036V4.08691C16.118 5.2829 15.1428 6.25244 13.9399 6.25244C12.7369 6.25244 11.7617 5.2829 11.7617 4.08691V3.87036C11.7617 2.67437 12.7369 1.70483 13.9399 1.70483Z" fill="#8000FF" fill-opacity="0.2"/>
<path d="M52.8506 20.0059H56.2007C57.4452 20.0059 58.5363 19.8354 59.474 19.4944C60.4287 19.1364 61.1789 18.6249 61.7244 17.96C62.287 17.2951 62.5683 16.4939 62.5683 15.5562C62.5683 14.5333 62.287 13.6894 61.7244 13.0245C61.1789 12.3425 60.4287 11.8396 59.474 11.5157C58.5363 11.1747 57.4452 11.0042 56.2007 11.0042H49.6284V28.9052H56.6354C58.0505 28.9052 59.278 28.7348 60.3179 28.3938C61.3579 28.0358 62.1592 27.4902 62.7218 26.7571C63.3014 26.024 63.5913 25.0608 63.5913 23.8674C63.5913 22.9638 63.3867 22.1966 62.9775 21.5658C62.5854 20.918 62.0569 20.3895 61.392 19.9803C60.7271 19.5541 59.9855 19.2472 59.1671 19.0597C58.3488 18.8721 57.5049 18.7784 56.6354 18.7784H52.8506V21.1311H56.1495C56.5758 21.1311 56.9593 21.1737 57.3003 21.2589C57.6583 21.3271 57.9737 21.4465 58.2465 21.617C58.5193 21.7874 58.7324 22.0091 58.8858 22.2819C59.0393 22.5546 59.116 22.8786 59.116 23.2536C59.116 23.8333 58.9796 24.2936 58.7068 24.6346C58.4511 24.9585 58.1016 25.1972 57.6583 25.3506C57.2151 25.487 56.7121 25.5552 56.1495 25.5552H53.9503V14.3543H55.7404C56.4905 14.3543 57.0702 14.5077 57.4793 14.8146C57.8885 15.1214 58.0931 15.5818 58.0931 16.1955C58.0931 16.6047 57.9993 16.9542 57.8118 17.244C57.6242 17.5168 57.3515 17.7299 56.9934 17.8833C56.6525 18.0368 56.2348 18.1135 55.7404 18.1135H52.8506V20.0059Z" fill="white"/>
<path d="M65.2295 12.7176C65.2295 13.3313 65.4512 13.8343 65.8944 14.2264C66.3377 14.6185 66.8662 14.8146 67.4799 14.8146C68.1107 14.8146 68.6392 14.6185 69.0655 14.2264C69.5087 13.8343 69.7304 13.3313 69.7304 12.7176C69.7304 12.1038 69.5087 11.6094 69.0655 11.2344C68.6392 10.8422 68.1107 10.6462 67.4799 10.6462C66.8662 10.6462 66.3377 10.8422 65.8944 11.2344C65.4512 11.6094 65.2295 12.1038 65.2295 12.7176ZM65.6131 17.1417V28.9052H69.3468V17.1417H65.6131Z" fill="white"/>
<path d="M71.0695 23.0235C71.0695 24.251 71.3594 25.325 71.939 26.2457C72.5187 27.1663 73.3199 27.8823 74.3429 28.3938C75.3658 28.9052 76.5166 29.161 77.7952 29.161C79.0738 29.161 80.2161 28.9052 81.222 28.3938C82.2449 27.8823 83.0462 27.1663 83.6258 26.2457C84.2225 25.325 84.5209 24.251 84.5209 23.0235C84.5209 21.7789 84.2225 20.6963 83.6258 19.7757C83.0462 18.8551 82.2449 18.139 81.222 17.6276C80.2161 17.1161 79.0738 16.8604 77.7952 16.8604C76.5166 16.8604 75.3658 17.1161 74.3429 17.6276C73.3199 18.139 72.5187 18.8551 71.939 19.7757C71.3594 20.6963 71.0695 21.7789 71.0695 23.0235ZM75.0333 23.0235C75.0333 22.4097 75.1612 21.8812 75.4169 21.438C75.6727 20.9947 76.0051 20.6537 76.4143 20.415C76.8234 20.1764 77.2837 20.057 77.7952 20.057C78.2896 20.057 78.7414 20.1764 79.1506 20.415C79.5768 20.6537 79.9092 20.9947 80.1479 21.438C80.4036 21.8812 80.5315 22.4097 80.5315 23.0235C80.5315 23.6372 80.4036 24.1657 80.1479 24.609C79.9092 25.0352 79.5768 25.3677 79.1506 25.6063C78.7414 25.845 78.2896 25.9644 77.7952 25.9644C77.2837 25.9644 76.8234 25.845 76.4143 25.6063C76.0051 25.3677 75.6727 25.0352 75.4169 24.609C75.1612 24.1657 75.0333 23.6372 75.0333 23.0235Z" fill="white"/>
<path d="M86.7161 24.6346L85.1051 27.1919C85.6336 27.601 86.2047 27.9761 86.8184 28.3171C87.4322 28.641 88.0971 28.8967 88.8131 29.0842C89.5462 29.2888 90.339 29.3911 91.1914 29.3911C92.5894 29.3911 93.672 29.0757 94.4392 28.4449C95.2234 27.7971 95.6155 26.8424 95.6155 25.5808C95.6155 24.8477 95.4536 24.2595 95.1296 23.8162C94.8228 23.373 94.4051 23.0064 93.8766 22.7166C93.3651 22.4268 92.8025 22.171 92.1887 21.9494C91.6091 21.7278 91.1147 21.5488 90.7055 21.4124C90.3134 21.2589 90.0065 21.097 89.7849 20.9265C89.5803 20.756 89.478 20.5429 89.478 20.2872C89.478 20.0655 89.5633 19.8865 89.7338 19.7501C89.9213 19.6137 90.1941 19.5456 90.5521 19.5456C91.0806 19.5456 91.6602 19.699 92.291 20.0059C92.9218 20.2957 93.4844 20.6708 93.9789 21.1311L95.3598 18.6249C94.8995 18.284 94.4051 17.9856 93.8766 17.7299C93.3651 17.4742 92.811 17.2696 92.2143 17.1161C91.6347 16.9627 91.0039 16.886 90.3219 16.886C89.4695 16.886 88.7108 17.0138 88.0459 17.2696C87.3981 17.5253 86.8781 17.9004 86.486 18.3948C86.1109 18.8892 85.9234 19.4944 85.9234 20.2105C85.9234 20.9606 86.0854 21.5743 86.4093 22.0517C86.7332 22.5291 87.1424 22.9127 87.6368 23.2025C88.1482 23.4753 88.6853 23.7139 89.2479 23.9185C89.8787 24.1061 90.3731 24.2851 90.7311 24.4556C91.1062 24.626 91.3704 24.8051 91.5239 24.9926C91.6773 25.1631 91.754 25.3762 91.754 25.6319C91.754 25.9047 91.6602 26.1263 91.4727 26.2968C91.2852 26.4673 90.9953 26.5525 90.6032 26.5525C90.3305 26.5525 90.0065 26.5014 89.6315 26.3991C89.2564 26.2798 88.8217 26.0837 88.3272 25.8109C87.8499 25.5211 87.3129 25.129 86.7161 24.6346Z" fill="white"/>
<path d="M108.892 17.1417H104.928L101.169 26.5525L103.164 26.5781L99.3536 17.1417H95.1085L100.197 27.959L97.3333 34.5313H101.22L108.892 17.1417Z" fill="white"/>
<path d="M117.062 21.7448V28.9052H121.077V21.3357C121.077 19.9206 120.745 18.821 120.08 18.0368C119.415 17.2525 118.35 16.8604 116.883 16.8604C116.014 16.8604 115.281 17.0394 114.684 17.3974C114.104 17.7555 113.644 18.2584 113.303 18.9062V17.1417H109.416V28.9052H113.303V21.7448C113.303 21.2845 113.388 20.8924 113.559 20.5685C113.729 20.2445 113.968 19.9973 114.275 19.8269C114.582 19.6564 114.94 19.5711 115.349 19.5711C115.963 19.5711 116.398 19.7587 116.653 20.1337C116.926 20.5088 117.062 21.0458 117.062 21.7448Z" fill="white"/>
<path d="M121.977 17.1417V20.3383H129.854V17.1417H121.977ZM124.049 13.05V28.9052H127.757V13.05H124.049Z" fill="white"/>
<path d="M134.62 8.95837H130.733V28.9052H134.62V8.95837ZM138.379 21.7448V28.9052H142.24V21.1822C142.24 20.2105 142.104 19.3921 141.831 18.7272C141.558 18.0623 141.124 17.5594 140.527 17.2184C139.947 16.8774 139.172 16.707 138.2 16.707C137.228 16.707 136.427 16.9371 135.796 17.3974C135.182 17.8407 134.722 18.4459 134.415 19.2131C134.108 19.9632 133.955 20.8072 133.955 21.7448H134.62C134.62 21.2845 134.705 20.9009 134.875 20.594C135.046 20.2701 135.284 20.0229 135.591 19.8524C135.898 19.6649 136.256 19.5711 136.665 19.5711C137.296 19.5711 137.739 19.7587 137.995 20.1337C138.251 20.5088 138.379 21.0458 138.379 21.7448Z" fill="white"/>
<path d="M150.509 29.161C152.009 29.161 153.279 28.8711 154.319 28.2915C155.376 27.7118 156.212 26.8424 156.825 25.6831L153.373 24.8391C153.083 25.3506 152.691 25.7342 152.197 25.9899C151.719 26.2457 151.14 26.3735 150.458 26.3735C149.861 26.3735 149.358 26.2457 148.949 25.9899C148.54 25.7172 148.233 25.325 148.028 24.8136C147.824 24.3021 147.722 23.6884 147.722 22.9723C147.739 22.1881 147.841 21.5402 148.028 21.0288C148.233 20.5003 148.531 20.1082 148.923 19.8524C149.316 19.5967 149.801 19.4688 150.381 19.4688C150.841 19.4688 151.242 19.5711 151.583 19.7757C151.924 19.9803 152.188 20.2701 152.376 20.6452C152.563 21.0203 152.657 21.4635 152.657 21.975C152.657 22.0943 152.623 22.2478 152.555 22.4353C152.504 22.6058 152.435 22.7507 152.35 22.87L153.271 21.6937H146.008V23.8418H156.749C156.783 23.7225 156.8 23.5776 156.8 23.4071C156.8 23.2195 156.8 23.032 156.8 22.8445C156.8 21.5829 156.553 20.5088 156.058 19.6223C155.564 18.7357 154.848 18.0623 153.91 17.602C152.972 17.1247 151.822 16.886 150.458 16.886C149.094 16.886 147.909 17.1332 146.903 17.6276C145.914 18.122 145.156 18.8295 144.627 19.7501C144.099 20.6708 143.834 21.7619 143.834 23.0235C143.834 24.268 144.107 25.3506 144.653 26.2712C145.198 27.1919 145.966 27.9079 146.954 28.4194C147.96 28.9138 149.145 29.161 150.509 29.161Z" fill="white"/>
<path d="M159.056 24.6346L157.445 27.1919C157.974 27.601 158.545 27.9761 159.159 28.3171C159.773 28.641 160.437 28.8967 161.153 29.0842C161.887 29.2888 162.679 29.3911 163.532 29.3911C164.93 29.3911 166.012 29.0757 166.78 28.4449C167.564 27.7971 167.956 26.8424 167.956 25.5808C167.956 24.8477 167.794 24.2595 167.47 23.8162C167.163 23.373 166.745 23.0064 166.217 22.7166C165.705 22.4268 165.143 22.171 164.529 21.9494C163.949 21.7278 163.455 21.5488 163.046 21.4124C162.654 21.2589 162.347 21.097 162.125 20.9265C161.921 20.756 161.818 20.5429 161.818 20.2872C161.818 20.0655 161.904 19.8865 162.074 19.7501C162.262 19.6137 162.534 19.5456 162.892 19.5456C163.421 19.5456 164.001 19.699 164.631 20.0059C165.262 20.2957 165.825 20.6708 166.319 21.1311L167.7 18.6249C167.24 18.284 166.745 17.9856 166.217 17.7299C165.705 17.4742 165.151 17.2696 164.555 17.1161C163.975 16.9627 163.344 16.886 162.662 16.886C161.81 16.886 161.051 17.0138 160.386 17.2696C159.738 17.5253 159.218 17.9004 158.826 18.3948C158.451 18.8892 158.264 19.4944 158.264 20.2105C158.264 20.9606 158.426 21.5743 158.75 22.0517C159.074 22.5291 159.483 22.9127 159.977 23.2025C160.489 23.4753 161.026 23.7139 161.588 23.9185C162.219 24.1061 162.713 24.2851 163.071 24.4556C163.447 24.626 163.711 24.8051 163.864 24.9926C164.018 25.1631 164.094 25.3762 164.094 25.6319C164.094 25.9047 164.001 26.1263 163.813 26.2968C163.626 26.4673 163.336 26.5525 162.944 26.5525C162.671 26.5525 162.347 26.5014 161.972 26.3991C161.597 26.2798 161.162 26.0837 160.668 25.8109C160.19 25.5211 159.653 25.129 159.056 24.6346Z" fill="white"/>
<path d="M169.082 12.7176C169.082 13.3313 169.304 13.8343 169.747 14.2264C170.191 14.6185 170.719 14.8146 171.333 14.8146C171.964 14.8146 172.492 14.6185 172.918 14.2264C173.362 13.8343 173.583 13.3313 173.583 12.7176C173.583 12.1038 173.362 11.6094 172.918 11.2344C172.492 10.8422 171.964 10.6462 171.333 10.6462C170.719 10.6462 170.191 10.8422 169.747 11.2344C169.304 11.6094 169.082 12.1038 169.082 12.7176ZM169.466 17.1417V28.9052H173.2V17.1417H169.466Z" fill="white"/>
<path d="M176.252 24.6346L174.641 27.1919C175.17 27.601 175.741 27.9761 176.355 28.3171C176.968 28.641 177.633 28.8967 178.349 29.0842C179.082 29.2888 179.875 29.3911 180.728 29.3911C182.126 29.3911 183.208 29.0757 183.975 28.4449C184.76 27.7971 185.152 26.8424 185.152 25.5808C185.152 24.8477 184.99 24.2595 184.666 23.8162C184.359 23.373 183.941 23.0064 183.413 22.7166C182.901 22.4268 182.339 22.171 181.725 21.9494C181.145 21.7278 180.651 21.5488 180.242 21.4124C179.85 21.2589 179.543 21.097 179.321 20.9265C179.116 20.756 179.014 20.5429 179.014 20.2872C179.014 20.0655 179.099 19.8865 179.27 19.7501C179.457 19.6137 179.73 19.5456 180.088 19.5456C180.617 19.5456 181.196 19.699 181.827 20.0059C182.458 20.2957 183.021 20.6708 183.515 21.1311L184.896 18.6249C184.436 18.284 183.941 17.9856 183.413 17.7299C182.901 17.4742 182.347 17.2696 181.75 17.1161C181.171 16.9627 180.54 16.886 179.858 16.886C179.006 16.886 178.247 17.0138 177.582 17.2696C176.934 17.5253 176.414 17.9004 176.022 18.3948C175.647 18.8892 175.46 19.4944 175.46 20.2105C175.46 20.9606 175.621 21.5743 175.945 22.0517C176.269 22.5291 176.679 22.9127 177.173 23.2025C177.684 23.4753 178.221 23.7139 178.784 23.9185C179.415 24.1061 179.909 24.2851 180.267 24.4556C180.642 24.626 180.907 24.8051 181.06 24.9926C181.213 25.1631 181.29 25.3762 181.29 25.6319C181.29 25.9047 181.196 26.1263 181.009 26.2968C180.821 26.4673 180.531 26.5525 180.139 26.5525C179.867 26.5525 179.543 26.5014 179.168 26.3991C178.793 26.2798 178.358 26.0837 177.863 25.8109C177.386 25.5211 176.849 25.129 176.252 24.6346Z" fill="white"/>
</svg>
